<?xml version="1.0" standalone="no"?>
<!DOCTYPE svg PUBLIC "-//W3C//DTD SVG 20010904//EN"
 "http://www.w3.org/TR/2001/REC-SVG-20010904/DTD/svg10.dtd">
<svg version="1.0" xmlns="http://www.w3.org/2000/svg"
 width="450.000000pt" height="253.000000pt" viewBox="0 0 450.000000 253.000000"
 preserveAspectRatio="xMidYMid meet">

<g transform="translate(0.000000,253.000000) scale(0.100000,-0.100000)"
fill="#000000" stroke="none">
<path d="M0 1265 l0 -1265 2250 0 2250 0 0 1265 0 1265 -2250 0 -2250 0 0
-1265z m1984 886 c3 -5 -1 -12 -10 -15 -20 -8 -29 -1 -19 13 8 13 22 14 29 2z
m-54 -35 c0 -3 -4 -8 -10 -11 -5 -3 -10 -1 -10 4 0 6 5 11 10 11 6 0 10 -2 10
-4z m66 -13 c-1 -21 -15 -33 -38 -33 -24 0 -12 29 16 40 12 5 22 9 22 9 1 1 1
-7 0 -16z m-99 -49 c-7 -48 -17 -56 -17 -12 0 31 6 48 17 48 3 0 2 -16 0 -36z
m53 -4 c0 -5 -2 -10 -4 -10 -3 0 -8 5 -11 10 -3 6 -1 10 4 10 6 0 11 -4 11
-10z m40 -4 c-7 -7 -14 -6 -21 1 -9 9 -7 12 9 10 14 -1 18 -5 12 -11z m-225
-6 c-3 -5 -14 -10 -23 -9 -14 0 -13 2 3 9 27 11 27 11 20 0z m365 0 c0 -5 -5
-10 -11 -10 -5 0 -7 5 -4 10 3 6 8 10 11 10 2 0 4 -4 4 -10z m86 -2 c-9 -5
-23 -5 -32 0 -12 6 -7 9 16 9 23 0 28 -3 16 -9z m171 -4 c-3 -3 -12 -4 -19 -1
-8 3 -5 6 6 6 11 1 17 -2 13 -5z m166 -14 c17 -17 17 -17 -10 -12 -15 2 -33 9
-40 14 -7 5 -17 7 -23 3 -5 -3 -10 -2 -10 4 0 16 63 9 83 -9z m137 10 c8 -5
11 -10 5 -10 -5 0 -17 5 -25 10 -8 5 -10 10 -5 10 6 0 17 -5 25 -10z m-890 -9
c0 -6 -4 -13 -10 -16 -5 -3 -10 1 -10 9 0 9 5 16 10 16 6 0 10 -4 10 -9z m140
5 c0 -3 -4 -8 -10 -11 -5 -3 -10 -1 -10 4 0 6 5 11 10 11 6 0 10 -2 10 -4z
m57 -2 c-3 -3 -12 -4 -19 -1 -8 3 -5 6 6 6 11 1 17 -2 13 -5z m634 -3 c-7 -5
-10 -14 -7 -20 4 -6 2 -11 -3 -11 -12 0 -15 23 -4 33 3 4 11 7 17 7 6 0 5 -4
-3 -9z m-924 -7 c-3 -3 -12 -4 -19 -1 -8 3 -5 6 6 6 11 1 17 -2 13 -5z m46
-11 c-7 -2 -19 -2 -25 0 -7 3 -2 5 12 5 14 0 19 -2 13 -5z m957 -18 c-7 -8 -9
-15 -5 -15 5 0 6 -2 3 -5 -7 -8 -38 5 -38 16 0 10 42 29 49 23 2 -2 -2 -10 -9
-19z m-1029 -12 c12 -15 12 -16 -3 -10 -10 3 -18 2 -18 -3 0 -6 -4 -10 -9 -10
-5 0 -7 9 -4 20 6 24 16 25 34 3z m1098 -4 l-24 -22 25 7 c41 12 66 17 50 10
-8 -4 -22 -13 -31 -20 -14 -12 -20 -12 -45 1 -16 8 -23 15 -16 15 7 0 20 7 28
15 9 8 20 15 26 15 6 0 0 -10 -13 -21z m101 2 c0 -13 -29 -35 -37 -27 -3 3 -1
6 5 6 6 0 9 7 6 15 -4 9 0 15 10 15 9 0 16 -4 16 -9z m-1262 -26 c-15 -28 -15
-28 -20 -3 -3 18 0 24 13 24 14 0 16 -4 7 -21z m1342 14 c0 -6 -10 -19 -22
-29 l-23 -19 23 6 c27 7 30 -12 3 -27 -16 -8 -20 -6 -23 8 -7 37 4 72 23 72
11 0 19 -5 19 -11z m-1395 -19 c-3 -5 -11 -10 -16 -10 -6 0 -7 5 -4 10 3 6 11
10 16 10 6 0 7 -4 4 -10z m1307 -17 c-10 -4 -9 -9 4 -24 21 -24 7 -25 -25 -2
-23 16 -23 17 -5 24 10 4 24 8 29 8 6 -1 4 -3 -3 -6z m-1339 -9 c9 -9 -4 -35
-14 -28 -5 3 -9 12 -9 20 0 14 12 19 23 8z m-148 -34 c-3 -5 -11 -10 -16 -10
-6 0 -7 5 -4 10 3 6 11 10 16 10 6 0 7 -4 4 -10z m1600 -6 c13 -9 29 -13 35
-9 5 3 10 2 10 -4 0 -5 -6 -11 -12 -13 -15 -5 13 -53 46 -80 15 -13 17 -18 6
-18 -22 0 -37 13 -42 35 -2 11 -10 20 -19 19 -9 -1 -14 8 -14 24 0 14 -6 27
-14 30 -9 3 -11 -1 -6 -17 5 -16 3 -20 -10 -15 -9 4 -14 13 -11 21 3 8 1 11
-4 8 -20 -12 -32 7 -13 21 23 17 19 17 48 -2z m-1670 -57 c4 5 5 2 1 -5 -12
-21 -29 -9 -31 23 l-3 30 12 -28 c7 -15 16 -24 21 -20z m60 12 c5 -6 5 -13 -3
-21 -9 -9 -13 -7 -18 6 -4 10 -16 22 -28 27 -17 8 -15 8 9 4 17 -4 34 -11 40
-16z m1095 -4 c-7 -8 -16 -15 -20 -15 -4 0 -10 7 -14 15 -4 11 2 15 21 15 21
0 24 -2 13 -15z m647 -31 c2 -7 -6 -10 -22 -6 -34 6 -40 18 -8 17 15 0 28 -5
30 -11z m60 -46 c-2 -13 -4 -3 -4 22 0 25 2 35 4 23 2 -13 2 -33 0 -45z m436
45 c-6 -17 -5 -17 14 0 11 9 23 17 28 17 5 0 -6 -12 -25 -27 -19 -16 -52 -44
-75 -63 -22 -19 -33 -26 -25 -16 14 18 13 19 -4 13 -15 -6 -17 -5 -8 6 7 8 9
17 5 20 -3 4 -1 7 5 7 6 0 14 -5 17 -10 4 -6 11 -8 16 -4 6 3 5 12 -3 21 -11
14 -10 15 10 9 15 -5 22 -3 22 6 0 12 18 38 27 38 1 0 0 -8 -4 -17z m51 -14
c-3 -6 0 -15 7 -20 9 -6 10 -9 2 -9 -15 0 -26 17 -18 30 3 6 8 10 11 10 3 0 2
-5 -2 -11z m-2374 -8 c0 -18 -18 -21 -30 -6 -10 13 -9 15 9 15 11 0 21 -4 21
-9z m-83 -43 c-3 -7 -5 -2 -5 12 0 14 2 19 5 13 2 -7 2 -19 0 -25z m1924 -8
c7 0 9 -3 6 -6 -10 -10 -37 16 -36 35 0 11 3 9 9 -6 5 -13 15 -23 21 -23z
m-1814 24 c-3 -3 -12 -4 -19 -1 -8 3 -5 6 6 6 11 1 17 -2 13 -5z m2351 -39 c1
-20 -2 -26 -13 -21 -10 4 -15 -1 -15 -14 0 -11 -4 -20 -10 -20 -5 0 -10 4 -10
10 0 5 -6 7 -14 4 -8 -3 -17 0 -22 7 -4 8 -3 10 4 5 7 -4 12 -1 12 9 0 9 -4
13 -10 10 -16 -10 -12 11 5 25 13 10 15 9 15 -10 0 -15 5 -20 18 -18 9 2 17
12 17 23 0 11 -6 19 -13 17 -8 -1 -11 2 -7 8 11 18 40 -6 43 -35z m-1098 21
c0 -11 -19 -15 -25 -6 -3 5 1 10 9 10 9 0 16 -2 16 -4z m618 -12 c-12 -12 -13
-20 -4 -40 11 -23 28 -29 73 -25 16 1 21 -4 20 -17 -1 -16 -6 -18 -28 -12 -40
12 -66 28 -72 45 -4 8 -13 12 -21 9 -24 -9 -8 32 17 44 31 15 34 14 15 -4z
m286 -27 c-3 -9 -11 -17 -16 -17 -6 0 -6 6 1 14 8 10 9 16 1 21 -5 3 -10 11
-10 18 0 7 6 5 15 -4 9 -9 13 -23 9 -32z m12 -25 l-29 -27 23 32 c13 18 26 30
29 28 3 -3 -8 -18 -23 -33z m105 -72 c7 13 9 12 9 -2 0 -10 -7 -18 -15 -18 -8
0 -15 7 -15 15 0 8 -4 15 -9 15 -5 0 -4 14 2 31 l12 31 3 -43 c2 -31 6 -39 13
-29z m-189 45 c0 -5 -5 -11 -11 -13 -6 -2 -11 4 -11 13 0 9 5 15 11 13 6 -2
11 -8 11 -13z m112 2 c-2 -7 4 -21 15 -31 11 -10 18 -23 15 -27 -8 -14 -24
-10 -24 6 0 11 -5 13 -17 6 -10 -5 -31 -14 -46 -20 -18 -7 -27 -17 -24 -25 6
-15 -39 -63 -50 -53 -3 4 -12 2 -20 -4 -7 -6 -13 -8 -13 -5 0 6 161 166 167
166 1 0 0 -6 -3 -13z m-2334 -15 c0 -4 -10 -13 -22 -21 -23 -14 -23 -14 -4 8
20 22 26 25 26 13z m2258 1 c-10 -2 -18 -9 -18 -14 0 -5 -20 -31 -44 -57 -24
-26 -45 -54 -48 -62 -4 -11 -9 -8 -18 12 -10 22 -10 30 3 48 8 12 18 17 21 11
4 -5 2 -12 -4 -16 -5 -3 -10 -10 -10 -16 0 -5 9 -4 20 3 11 7 18 18 16 25 -3
7 1 10 8 7 8 -3 22 10 34 30 13 21 29 36 39 35 17 -1 17 -2 1 -6z m-177 -53
c5 0 9 5 9 12 0 6 3 9 6 6 3 -4 0 -17 -7 -29 -12 -23 -12 -23 -20 -4 -4 11 -7
29 -7 40 1 17 1 16 5 -2 2 -13 9 -23 14 -23z m32 -20 c-9 -11 -19 -17 -21 -15
-6 6 18 35 29 35 5 0 1 -9 -8 -20z m-2198 -76 c-3 -17 -11 -39 -19 -49 -12
-17 -13 -15 -12 23 1 42 9 54 20 30 3 -7 4 7 1 32 -4 38 -4 41 6 20 5 -14 8
-39 4 -56z m2189 22 c-7 -19 -20 -21 -30 -4 -4 7 -3 8 5 4 6 -4 14 0 17 9 4 9
8 14 10 12 3 -2 2 -12 -2 -21z m19 -41 c-3 -9 -8 -14 -10 -11 -3 3 -2 9 2 15
9 16 15 13 8 -4z m28 -56 c-12 -12 -25 -18 -29 -14 -4 4 -2 10 5 12 7 2 9 12
6 21 -4 15 -3 15 6 2 10 -14 16 -7 11 15 -1 6 4 4 11 -2 10 -10 8 -17 -10 -34z
m24 -49 c-9 -41 -17 -33 -9 9 4 17 9 30 11 27 3 -2 2 -19 -2 -36z m-2293 -20
c-2 -22 -8 -40 -13 -40 -4 0 -6 -7 -3 -15 4 -8 1 -15 -5 -15 -6 0 -11 12 -11
26 0 14 4 23 10 19 6 -4 10 8 10 29 0 20 3 36 8 36 4 0 6 -18 4 -40z m2273
-30 c-3 -6 1 -17 9 -26 9 -9 13 -20 10 -25 -8 -13 -33 20 -34 44 0 9 5 17 11
17 5 0 7 -5 4 -10z m-2288 -96 c-4 -24 -2 -32 5 -28 7 4 8 2 4 -5 -13 -21 -26
-1 -26 40 0 27 4 38 11 33 7 -4 9 -21 6 -40z m-80 -26 c-3 -8 -6 -5 -6 6 -1
11 2 17 5 13 3 -3 4 -12 1 -19z m99 -42 c0 -13 -4 -22 -8 -19 -13 7 -9 -12 4
-27 8 -10 6 -9 -5 1 -14 13 -16 21 -8 42 13 33 19 34 17 3z m2280 -27 c0 -13
-3 -15 -13 -7 -7 6 -13 14 -13 18 0 3 6 7 13 7 7 0 13 -8 13 -18z m9 -70 c-2
-29 -25 -67 -25 -41 0 7 6 12 13 13 6 1 1 4 -13 8 l-24 7 22 22 c28 28 30 28
27 -9z m-2240 -40 c11 -16 1 -19 -13 -3 -7 8 -8 14 -3 14 5 0 13 -5 16 -11z
m2150 -21 c-1 -18 2 -43 6 -56 6 -15 5 -21 -1 -17 -6 3 -10 12 -10 20 0 22
-28 26 -35 4 -4 -11 -9 -18 -11 -16 -6 6 38 97 46 97 4 0 6 -15 5 -32z m-2211
-8 c-6 -6 -10 -3 -10 10 0 13 4 16 10 10 7 -7 7 -13 0 -20z m54 -17 c-6 -8
-19 -11 -29 -8 -12 4 -19 1 -19 -6 0 -7 -3 -10 -6 -6 -3 3 2 17 12 30 15 19
22 22 36 14 13 -8 14 -15 6 -24z m-23 -73 c13 -6 15 -9 5 -9 -8 0 -22 4 -30 9
-18 12 -2 12 25 0z m2142 -12 c-3 -8 -6 -5 -6 6 -1 11 2 17 5 13 3 -3 4 -12 1
-19z m43 7 c0 -8 -2 -15 -4 -15 -2 0 -6 7 -10 15 -3 8 -1 15 4 15 6 0 10 -7
10 -15z m-2146 -13 c3 -5 -1 -9 -9 -9 -8 0 -12 4 -9 9 3 4 7 8 9 8 2 0 6 -4 9
-8z m2057 -20 c-5 -10 -18 -25 -27 -33 -11 -9 -9 -2 6 19 26 35 36 42 21 14z
m-1991 -13 c0 -6 -4 -7 -10 -4 -5 3 -10 11 -10 16 0 6 5 7 10 4 6 -3 10 -11
10 -16z m-10 -29 c0 -5 -2 -10 -4 -10 -3 0 -8 5 -11 10 -3 6 -1 10 4 10 6 0
11 -4 11 -10z m2005 -6 c-9 -9 -19 -13 -23 -10 -3 4 0 11 8 16 24 15 33 11 15
-6z m-2015 -17 c11 -5 9 -6 -4 -4 -11 1 -21 9 -23 17 -3 10 -2 11 4 4 4 -6 15
-14 23 -17z m34 0 c-3 -7 2 -3 10 7 16 19 16 19 16 -3 0 -28 -33 -25 -38 3 -3
11 0 16 7 11 6 -3 9 -12 5 -18z m111 -61 l30 -29 -31 21 c-17 12 -34 19 -38
15 -3 -3 -6 -1 -6 5 0 7 -5 12 -12 12 -9 0 -9 -3 0 -12 23 -23 14 -39 -23 -36
-37 2 -38 3 -26 33 8 19 8 19 15 -2 10 -31 28 -29 20 1 -3 14 -3 30 1 36 8 12
19 5 70 -44z m1802 6 c1 -19 -1 -22 -8 -11 -7 10 -8 4 -5 -19 3 -23 1 -32 -7
-29 -7 2 -12 14 -11 26 0 11 -3 21 -8 21 -4 0 -8 -5 -8 -12 0 -6 -2 -9 -5 -6
-11 11 8 39 22 33 10 -3 13 -1 10 8 -3 8 0 14 6 14 7 0 13 -12 14 -25z m63 -7
l25 -14 -32 -1 c-31 0 -49 11 -36 24 9 8 14 7 43 -9z m-1870 -20 c0 -12 -19
-12 -23 0 -4 9 -1 12 9 8 7 -3 14 -7 14 -8z m1750 -39 c0 -31 -58 -53 -90 -35
-12 7 -11 9 5 10 11 1 27 0 34 -1 13 -1 13 1 2 14 -16 19 -1 22 18 4 10 -11
11 -10 6 5 -5 12 -2 17 9 17 9 0 16 -6 16 -14z m-1630 -36 c0 -9 -47 -6 -56 3
-5 4 -1 5 9 1 20 -7 22 6 5 26 -7 7 -1 5 14 -6 15 -10 28 -21 28 -24z m35 -18
c-3 -3 -11 0 -18 7 -9 10 -8 11 6 5 10 -3 15 -9 12 -12z m65 -30 c7 -5 -23
-22 -39 -22 -11 0 -11 3 -1 15 9 10 9 15 1 15 -6 0 -11 5 -11 10 0 9 20 1 50
-18z m-65 0 c-3 -3 -11 0 -18 7 -9 10 -8 11 6 5 10 -3 15 -9 12 -12z m1462 11
c-4 -3 2 -16 13 -28 l20 -21 -40 1 c-21 0 -42 4 -46 7 -3 4 9 5 26 3 30 -4 31
-3 14 9 -10 8 -25 12 -34 9 -8 -2 -4 3 10 11 25 16 49 22 37 9z m-1503 -38 c3
-8 1 -15 -4 -15 -6 0 -10 7 -10 15 0 8 2 15 4 15 2 0 6 -7 10 -15z m156 5 c8
-5 12 -11 9 -14 -3 -3 -14 1 -25 9 -21 16 -8 20 16 5z m1280 -8 c0 -4 -10 -9
-22 -9 -18 -2 -20 0 -8 7 18 12 30 13 30 2z m-1305 -13 c11 -16 1 -19 -13 -3
-7 8 -8 14 -3 14 5 0 13 -5 16 -11z m1240 -19 c-10 -11 -23 -20 -29 -20 -6 0
0 9 14 20 32 25 38 25 15 0z m-1135 -12 c-19 -6 -15 -7 15 -4 22 2 49 1 60 -3
12 -5 -4 -7 -40 -7 -33 1 -59 4 -57 9 1 4 2 11 2 16 0 5 10 6 23 3 22 -6 22
-6 -3 -14z m1144 -13 c-10 -8 -26 -14 -34 -14 -9 0 -4 6 10 14 33 19 49 19 24
0z m-1099 -25 c3 -6 -1 -7 -9 -4 -18 7 -21 14 -7 14 6 0 13 -4 16 -10z m156
-1 c48 -11 51 -13 34 -25 -25 -19 -41 -18 -25 1 13 15 1 19 -62 19 -9 0 -15 3
-12 8 6 10 3 10 65 -3z m839 1 c0 -5 -10 -10 -22 -10 -19 0 -20 2 -8 10 19 13
30 13 30 0z m-753 -26 c-3 -3 -12 -4 -19 -1 -8 3 -5 6 6 6 11 1 17 -2 13 -5z
m81 -15 c55 -14 71 -24 40 -26 -12 -1 -25 1 -28 6 -3 4 -21 12 -40 18 -47 15
-30 16 28 2z m542 1 c9 -6 10 -10 3 -10 -6 0 -10 -8 -8 -17 2 -13 -4 -18 -21
-19 -17 -1 -24 3 -24 17 0 14 -8 19 -27 20 -25 2 -24 2 7 9 51 11 53 11 70 0z
m52 -27 c-3 -16 -7 -22 -10 -15 -4 13 4 42 11 42 2 0 2 -12 -1 -27z m-277 7
c-3 -5 -11 -10 -16 -10 -6 0 -7 5 -4 10 3 6 11 10 16 10 6 0 7 -4 4 -10z m147
1 c31 -2 8 -31 -24 -31 -16 0 -27 4 -24 9 3 5 -1 12 -10 15 -8 3 -12 2 -9 -4
3 -6 -1 -10 -9 -10 -8 0 -18 5 -21 10 -4 6 -12 4 -22 -5 -18 -19 -26 -15 -17
8 6 17 9 17 136 8z m208 -11 c0 -11 -2 -20 -4 -20 -2 0 -6 9 -9 20 -3 11 -1
20 4 20 5 0 9 -9 9 -20z m-494 1 c-3 -5 -15 -11 -26 -14 -11 -3 -18 -1 -14 4
3 5 -1 9 -10 9 -8 0 -17 -6 -19 -12 -3 -8 -6 -6 -6 5 -1 13 7 17 40 17 22 0
38 -4 35 -9z m57 2 c-7 -2 -19 -2 -25 0 -7 3 -2 5 12 5 14 0 19 -2 13 -5z m44
1 c-3 -3 -12 -4 -19 -1 -8 3 -5 6 6 6 11 1 17 -2 13 -5z m288 -3 c3 -5 1 -12
-5 -16 -5 -3 -10 1 -10 9 0 18 6 21 15 7z"/>
<path d="M3480 1605 c-14 -16 -10 -18 14 -9 9 3 16 10 16 15 0 14 -16 11 -30
-6z"/>
<path d="M3400 1525 c-7 -9 -11 -18 -8 -20 3 -3 11 1 18 10 7 9 11 18 8 20 -3
3 -11 -1 -18 -10z"/>
<path d="M3247 973 c-4 -3 -7 -11 -7 -17 0 -6 5 -5 12 2 6 6 9 14 7 17 -3 3
-9 2 -12 -2z"/>
<path d="M1080 959 c0 -5 5 -7 10 -4 6 3 10 8 10 11 0 2 -4 4 -10 4 -5 0 -10
-5 -10 -11z"/>
<path d="M2537 413 c-11 -11 -8 -23 6 -23 8 0 14 7 14 15 0 16 -9 19 -20 8z"/>
<path d="M2468 383 c7 -3 16 -2 19 1 4 3 -2 6 -13 5 -11 0 -14 -3 -6 -6z"/>
</g>
</svg>
